<svg width="200" height="60" viewBox="0 0 200 60" fill="none" xmlns="http://www.w3.org/2000/svg">
  <path d="M22.6 46L12.8 14H19.2L25.8 37.4L32.2 14H38.4L28.6 46H22.6Z" fill="white"/>
  <path d="M40.6 46V14H47V46H40.6Z" fill="white"/>
  <path d="M57.8 46L48 14H54.6L61.2 37.4L67.6 14H73.8L64 46H57.8Z" fill="white"/>
  <path d="M83.2 46L73.4 14H80L86.6 37.4L93 14H99.2L89.4 46H83.2Z" fill="white"/>
  <path d="M110 46C107.733 46 105.8 45.4 104.2 44.2C102.6 42.9333 101.533 41.2667 101 39.2C100.533 37.0667 100.3 34.8 100.3 32.4V27.6C100.3 25.2 100.533 22.9333 101 20.8C101.533 18.6667 102.6 16.9333 104.2 15.6C105.8 14.2667 107.733 13.6 110 13.6C113 13.6 115.333 14.5333 117 16.4C118.733 18.2 119.667 20.6 119.8 23.6H113.8C113.667 22.2667 113.267 21.2 112.6 20.4C112 19.5333 111.133 19.1333 110 19.1333C108.6 19.1333 107.6 19.8 107 21.1333C106.467 22.4667 106.2 24.2 106.2 26.3333V33.6667C106.2 35.8 106.467 37.5333 107 38.8667C107.6 40.2 108.6 40.8667 110 40.8667C111.133 40.8667 112 40.4667 112.6 39.6667C113.267 38.8 113.667 37.6667 113.8 36.2667H119.8C119.667 39.3333 118.733 41.8 117 43.6667C115.333 45.4667 113 46 110 46Z" fill="white"/>
  <path d="M133.2 46C130.8 46 128.8 45.1333 127.2 43.4C125.6 41.6667 124.8 39.4 124.8 36.6V14H131.2V35.8C131.2 37.2667 131.533 38.4 132.2 39.2C132.867 40 133.933 40.4 135.4 40.4C136.867 40.4 137.933 40 138.6 39.2C139.267 38.4 139.6 37.2667 139.6 35.8V14H146V36.6C146 39.4 145.2 41.6667 143.6 43.4C142 45.1333 140 46 137.6 46H133.2Z" fill="white"/>
  <path d="M154.4 46L144.6 14H151.2L157.8 37.4L164.2 14H170.4L160.6 46H154.4Z" fill="white"/>
  <path d="M184.2 46H172.2V14H184.2C186.333 14 188.2 14.4667 189.8 15.4C191.4 16.3333 192.667 17.7333 193.6 19.6C194.533 21.4 195 23.6 195 26.2V33.8C195 36.4 194.533 38.6 193.6 40.4C192.667 42.2 191.4 43.6 189.8 44.6C188.2 45.5333 186.333 46 184.2 46ZM184.2 40.4C185.933 40.4 187.2 39.8667 188 38.8C188.8 37.7333 189.2 36.2 189.2 34.2V25.8C189.2 23.8 188.8 22.2667 188 21.2C187.2 20.1333 185.933 19.6 184.2 19.6H178.6V40.4H184.2Z" fill="white"/>
  <path d="M188 7.6C184.667 7.6 182 6.8 180 5.2C178 3.6 177 1.33333 177 -1.6H183C183 -0.533333 183.4 0.333333 184.2 1C185 1.66667 186.267 2 188 2C189.6 2 190.8 1.66667 191.6 1C192.4 0.333333 192.8 -0.533333 192.8 -1.6H198.8C198.8 1.33333 197.8 3.6 195.8 5.2C193.8 6.8 191.2 7.6 188 7.6Z" fill="white"/>
  <path d="M106.2 8V2H100.2V8H106.2Z" fill="white"/>
  <path d="M150.8 8V2H144.8V8H150.8Z" fill="white"/>
  <path d="M89.8 8L95.8 2H89.8L86.8 5V8H89.8Z" fill="white"/>
  <text x="85" y="58" font-family="Arial" font-size="12" fill="white">PHONICS</text>
</svg> 